<svg width="32" height="32" viewBox="0 0 32 32" fill="none" xmlns="http://www.w3.org/2000/svg">
  <rect width="32" height="32" rx="8" fill="url(#gradient)" />
  <path d="M16 8C12.6863 8 10 10.6863 10 14V18C10 21.3137 12.6863 24 16 24C19.3137 24 22 21.3137 22 18V14C22 10.6863 19.3137 8 16 8ZM14 17C13.4477 17 13 16.5523 13 16C13 15.4477 13.4477 15 14 15C14.5523 15 15 15.4477 15 16C15 16.5523 14.5523 17 14 17ZM18 17C17.4477 17 17 16.5523 17 16C17 15.4477 17.4477 15 18 15C18.5523 15 19 15.4477 19 16C19 16.5523 18.5523 17 18 17Z" fill="white"/>
  <defs>
    <linearGradient id="gradient" x1="0" y1="0" x2="32" y2="32" gradientUnits="userSpaceOnUse">
      <stop stopColor="#5046E5"/>
      <stop offset="1" stopColor="#6C63FF"/>
    </linearGradient>
  </defs>
</svg>